<svg width="17" height="18" viewBox="0 0 17 18" fill="none" xmlns="http://www.w3.org/2000/svg">
<path d="M10.3133 0.267819C10.5909 0.576455 10.5915 1.04111 10.3297 1.34984L10.2588 1.42359L2.90294 8.181L16.1905 8.18182C16.6376 8.18182 17 8.54813 17 9C17 9.41959 16.6875 9.76542 16.2849 9.81268L16.1905 9.81818L2.90132 9.81736L10.2588 16.5764C10.5642 16.857 10.6085 17.3195 10.3769 17.652L10.3133 17.7322C10.0357 18.0408 9.57807 18.0856 9.24911 17.8515L9.16973 17.7872L0.26496 9.60541C0.237382 9.58007 0.211957 9.55328 0.188685 9.52528C0.15549 9.48509 0.12591 9.44162 0.100624 9.39541C-0.0335151 9.15026 -0.0335151 8.84974 0.100467 8.60454L0.141686 8.53739L0.205117 8.45567L0.26496 8.3946L9.16973 0.212782C9.50055 -0.0911781 10.0125 -0.0665373 10.3133 0.267819Z" fill="#121212"/>
</svg>
